# xmcd
#
# Track frame offsets:
# 150
# 19506
# 38737
# 42071
# 56036
# 70945
# 71636
# 77431
# 90020
# 101773
# 116978
# 130535
# 142178
#
# Disc length: 2123 seconds
#
#
# Revision: 0
# Processed by: cddbd v1.5.1PL0 Copyright (c) Steve Scherf et al.
# Submitted via: FreeRIP 2.70 
#
DISCID=a708490d
DTITLE=Vicente Fernandez - Lastima Que Seas Ajena
DYEAR=1993
DGENRE=Ranchero
TTITLE0=Lastima Que Seas Ajena
TTITLE1=Nuestro Juramento
TTITLE2=El Derrotado
TTITLE3=Pica Que Pica
TTITLE4=Mi Vejez
TTITLE5=Linda Por Fuera
TTITLE6=Ni con la Vida Te Pago
TTITLE7=Caminemos
TTITLE8=Verdad Que Duele
TTITLE9=Mis Manos
TTITLE10=Te Me Vas Al Diablo
TTITLE11=Por Eso Vuelve
TTITLE12=Perdon
EXTD=Sony Discos
EXTT0=
EXTT1=
EXTT2=
EXTT3=
EXTT4=
EXTT5=
EXTT6=
EXTT7=
EXTT8=
EXTT9=
EXTT10=
EXTT11=
EXTT12=
PLAYORDER=
